<svg width="33" height="33" viewBox="0 0 512 512" fill="#1D9BF0" xmlns="http://www.w3.org/2000/svg">
    <path d="M502.6 111.4c-18.7 8.3-39.5 13.9-61.1 16.4 21.9-13.1 38.7-33.8 46.6-58.5-20.5 12.2-43.2 21-67.5 25.8C398.2 67.3 372.7 51.4 344.4 51.4c-56 0-101.5 45.5-101.5 101.5 0 8 .9 15.8 2.6 23.4-84.3-4.2-158.8-44.6-208.4-105.9-8.8 15.1-13.9 32.6-13.9 51.4 0 35.3 18 66.6 45.3 85-16.7-.5-32.4-5.1-46.2-12.7v1.3c0 49.4 35.2 90.6 81.9 99.9-8.6 2.3-17.7 3.5-27 3.5-6.6 0-12.9-.6-19.2-1.9 13.1 41 51 70.8 96 71.5-35.1 27.5-79.3 43.9-127.4 43.9-8.3 0-16.5-.5-24.6-1.5 45.3 29 99.1 46 157.2 46 188.6 0 291.2-156.1 291.2-291.2 0-4.5-.1-8.9-.3-13.3 20.1-14.5 37.7-32.5 51.5-53.1z"/>
  </svg>
  